# xmcd
# 
# Track frame offsets:
#     182
#     12960
#     26425
#     38397
#     53750
#     89227
#     104342
#     120260
#     133355
#     149927
#     159287
#     175270
#     201152
#     213472
#     228865
#     247107
# 
# Disc length: 3346
# 
# Revision: 12
# Processed by: cddbd v1.5.2PL0 Copyright (c) Steve Scherf et al.
# Submitted via: fre:ac v1.0.31
# 
DISCID=e00d1010
DTITLE=The Blues Brothers - The Blues Brothers Complete CD2
DYEAR=1998
DGENRE=Rhythm And Blues
TTITLE0=Shake A Tail Feather
TTITLE1=The Old Landmark
TTITLE2=Theme From Rawhide
TTITLE3=Minnie The Moocher
TTITLE4=Sweet Home Chicago
TTITLE5=Jailhouse Rock
TTITLE6=Who's Making Love
TTITLE7=Do You Love Me
TTITLE8=Guilty
TTITLE9=Perry Mason Theme
TTITLE10=Riot In Cell Block Number Nine
TTITLE11=Green Onions
TTITLE12=I Ain't Got You
TTITLE13=From The Bottom
TTITLE14=Going Back To Miami
TTITLE15=Closing - I Can't Turn You Loose
EXTD=
EXTT0=
EXTT1=
EXTT2=
EXTT3=
EXTT4=
EXTT5=
EXTT6=
EXTT7=
EXTT8=
EXTT9=
EXTT10=
EXTT11=
EXTT12=
EXTT13=
EXTT14=
EXTT15=
PLAYORDER=
